<svg id="Layer_1" data-name="Layer 1" xmlns="http://www.w3.org/2000/svg" viewBox="0 0 356.98 263.06"><title>ifArtboard 1</title><circle cx="159.06" cy="243.81" r="19.25"/><circle cx="19.25" cy="19.25" r="19.25"/><path d="M357,224.39l-66.7-85.06a64,64,0,0,0-50.37-24.51h0l-61.6,3V87.31a38.5,38.5,0,0,0-38.5-38.5h0V119.7l-20.89,1a37.76,37.76,0,0,1-34.75-19.19L61,60.34A29.47,29.47,0,0,0,19.25,50.08l37.08,71.13a61.93,61.93,0,0,0,54.27,32.09h29.21v66h38.5v-66h51.61a48.6,48.6,0,0,1,37.64,17.85l43.62,53.4H186.48a38.5,38.5,0,0,0,38.5,38.5H357v-38.5h-.27Z"/></svg>